<svg xmlns="http://www.w3.org/2000/svg" width="256" height="256" viewBox="0 0 100 100">
    <path fill="#999"
          d="M19.64 49.70L19.64 49.70Q19.64 41.66 23.06 35.42Q26.48 29.18 32.42 25.58Q38.36 21.98 46.16 21.98L46.16
             21.98Q54.56 21.98 60.74 25.94Q66.92 29.90 70.28 36.50Q73.64 43.10 73.64 51.26L73.64 51.26Q73.64 59.30
             70.28 65.42Q66.92 71.54 60.92 74.96Q54.92 78.38 47.12 78.38L47.12 78.38Q39.44 78.38 33.20 74.78Q26.96
             71.18 23.30 64.70Q19.64 58.22 19.64 49.70ZM1.52 49.70L1.52 49.70Q1.52 59.18 4.82 67.28Q8.12 75.38 14.18
             81.38Q20.24 87.38 28.40 90.68Q36.56 93.98 46.16 93.98L46.16 93.98Q55.88 93.98 63.92 90.68Q71.96 87.38
             77.90 81.38Q83.84 75.38 87.08 67.28Q90.32 59.18 90.32 49.70L90.32 49.70Q90.32 40.10 87.02 32.12Q83.72
             24.14 77.78 18.26Q71.84 12.38 63.80 9.20Q55.76 6.02 46.16 6.02L46.16 6.02Q36.68 6.02 28.58 9.20Q20.48
             12.38 14.36 18.26Q8.24 24.14 4.88 32.12Q1.52 40.10 1.52 49.70ZM59.48 55.70L40.88 55.70L79.40 92.78L98.48
             92.78L59.48 55.70Z"/>
</svg>
